<svg id="Layer_1" data-name="Layer 1" xmlns="http://www.w3.org/2000/svg" viewBox="0 0 500 500"><title>kitchen</title><path d="M180.63,113.1Q191,99.39,201.27,85.68c1-1.32,1.6-3,2.79-4.07,11.26-10.25,14.29-23,13-37.79-.88-10.09-.31-20.31-.23-30.48C216.91,3.46,220.31.11,229.94.1q19.5,0,39,0c11.38,0,14.43,3.32,14.33,15-.11,13.47,0,26.94-.16,40.41-.09,6.36,1.18,11.93,5.45,17C294,79,298.77,86.05,303.9,92.81s10.29,13.39,17,22.07c1-4.93,2.07-7.88,2.07-10.83.05-28.59-.09-57.18-.15-85.78a88.11,88.11,0,0,1,.2-9.2c.55-5.45,3.65-8.66,9.2-8.9,5.19-.21,10.4-.09,15.6-.09H485.35C497,.07,500,3.26,500,14.72q0,139.32.1,278.65,0,94.31.12,188.61c0,1.42-.07,2.84-.12,4.25-.38,10.87-3.1,13.64-14.26,13.74-11.82.11-23.63-.11-35.45-.11q-120.55,0-241.09-.07c-52.93-.06-105.86-.32-158.78-.46-12.51,0-25,.37-37.53,0C1.54,498.9.16,497.26.14,485.54c-.06-49.4.32-98.81-.13-148.2-.17-18.33,1.54-19.9,20.15-19.42,13.22.34,26.46.24,39.68.17,2,0,3.94-1,5.91-1.47a38.55,38.55,0,0,0-2.17-6.26c-.75-1.38-2.32-2.3-3.48-3.48-3.39-3.43-4.89-7.73-1.23-11.23s8.46-3.32,12.12.47c2.38,2.46,4,5.69,5.93,8.58,1-.65,2-1.31,3-2,.45-2.18,1.24-4.34,1.27-6.52.13-10.16.34-20.34-.16-30.47-.12-2.39-2.56-6.12-4.53-6.56s-4.79,2.34-7,4c-.84.62-.8,2.53-1.65,3-2.72,1.61-6.51,4.64-8.34,3.79-2.7-1.25-5.83-5.47-5.68-8.25.62-11.22,11.31-20.05,22.26-19.51,12.15.6,20.13,9.12,20.16,21.73,0,10.16-.29,20.32-.08,30.47,0,2.28,1.66,4.53,2.55,6.78,2.25-.95,4.52-1.84,6.72-2.89.57-.28.84-1.14,1.37-1.59,3.65-3.16,8-5.48,12-1.67,4.1,4,2.38,8.58-1.11,12.58-2.09,2.4-3.93,5-6.92,8.87,4.17.64,6.78,1.38,9.39,1.39q96.42.11,192.86,0c8.75,0,9.78-1,9.8-9.81.07-38.77-.09-77.53.21-116.29.05-7-2.61-8.93-9.14-8.92q-142.53.2-285,.09c-5.68,0-11.35.05-17,0-8-.13-11.63-3.68-11.67-11.77-.09-18.2,0-36.4,0-54.6Q.12,64.48,0,12.36C0,4.17,4,0,12,0Q87.87,0,163.74.08c10.73,0,13.5,2.82,13.51,13.45,0,29.54-.11,59.08-.05,88.62,0,3.52.83,7,1.28,10.57ZM162.37,92.3c0-21.49-.07-43,0-64.48,0-10.38-1.85-12.51-12.27-12.51q-62,0-124.09,0c-7.83,0-10.48,2.22-10.51,9.94q-.28,66.66-.25,133.31c0,7.42,2.53,9.55,10,9.55q62,0,124.08,0c12.33,0,13-.78,13-13.41Q162.32,123.48,162.37,92.3Zm175.21-.6h.14c0,22.21-.05,44.41,0,66.61,0,8.08,1.56,9.69,9.51,9.7q63.42.09,126.86,0c8.42,0,10.54-2.16,10.54-10.53q.06-65.91-.06-131.82c0-8-2.27-10.23-10.06-10.24q-62.37-.08-124.74-.06c-10.37,0-12.23,2-12.22,12.59Q337.6,59.81,337.58,91.7Zm.1,316.46h0c0,21.95,0,43.91,0,65.87,0,8.81,1,9.79,9.68,9.82q64.09.22,128.2.36c5.71,0,8.84-2.22,8.84-8.35q.07-66.93.32-133.86c0-6.64-2.86-9.18-9.46-9.15-42.74.16-85.47.07-128.21.16-8.61,0-9.42,1-9.42,9.3Q337.67,375.24,337.68,408.16ZM162.2,409.61h.17c0-22.18.08-44.36,0-66.54-.05-8.78-1.26-10-9.78-10.05-42.74-.11-85.47-.06-128.21-.16-6.05,0-9,2-9,8.68.18,44.39.08,88.78.14,133.17,0,7.55,2.39,9.68,9.78,9.59,13.46-.16,26.91-.34,40.37-.37q43.56-.07,87.13,0c6.32,0,9.86-1.32,9.64-9.19C161.81,453.05,162.2,431.32,162.2,409.61Zm15-.73c0,22.43.08,44.86-.06,67.28,0,5.08,1.15,8,7,8q65.52-.29,131-.26c5.25,0,7.77-1.8,7.75-7.42q-.22-67.64-.09-135.28c0-6.1-2-8.32-8.2-8.3q-64.46.22-128.91-.06c-6.37,0-8.73,2.29-8.65,8.75C177.38,364,177.22,386.45,177.21,408.88ZM411.52,183v0c-21.5,0-43,0-64.52,0-5.8,0-9.46,1.57-9.44,8.37q.22,58.85.13,117.69c0,6.06,2.47,9,8.94,9,42.78-.15,85.55-.08,128.33-.15,7.69,0,9.67-2.22,9.68-10.49q0-57.39,0-114.8c0-8.48-1.21-9.62-10-9.63Zm-162-48.66v.15c18.67,0,37.33.07,56-.09,2.13,0,4.26-1.25,6.4-1.91-.78-2.12-1.14-4.55-2.42-6.31-11.24-15.41-22.38-30.9-34.2-45.86a18.81,18.81,0,0,0-11.7-6.24,141.2,141.2,0,0,0-27.58,0,17.59,17.59,0,0,0-11,6.06c-11.82,15-23.07,30.38-34.34,45.78-1.36,1.87-1.59,4.56-2.35,6.86,2.2.52,4.4,1.47,6.6,1.48C213.13,134.4,231.32,134.35,249.5,134.35Zm.71,33.79V168c21.5,0,43-.15,64.5.09,7,.07,8.32-3.62,8.25-9.39-.07-5.47-.59-9.58-7.91-9.55-43,.19-86,0-129,.1-8,0-9,1.47-9,9.81-.05,6.54,2.62,9.24,9.39,9.15C207.67,168,228.94,168.14,250.21,168.14ZM267.94,37.47h.21c0-4.47-.11-8.95,0-13.43.16-5.21-2.38-8.2-7.4-8.43-7-.33-14.14-.34-21.2-.08-5,.19-7.69,3-7.6,8.25.14,8.95.37,17.91.13,26.86-.15,5.56,2.65,7.83,7.57,8,6.59.22,13.19.11,19.79.07,6.07,0,9.12-2.77,8.55-9.22C267.65,45.51,267.94,41.48,267.94,37.47Z"/><path d="M272.56,267.87c-2.31-5.68-3.93-10.87-6.43-15.59-5.15-9.74-13.41-18.89-10.9-30.54,1.69-7.84,6.55-15.23,11.14-22.05,1.11-1.65,7.34-1.32,10.1.17,1.73.94,1.55,5.72,1.84,8.81.08.93-1,2.1-1.77,3-10.35,11.3-6.64,16-.76,26.38,3.23,5.71,6.05,11.67,8.85,17.61,6.3,13.36.82,25-6.53,35.63-1.64,2.37-8.44,3.79-11,2.34-4.82-2.72-3.1-8.09-.89-12.56S270.43,272.29,272.56,267.87Z"/><path d="M231.71,266.35c-4.22-7.7-8.17-15.61-12.77-23.12-8.73-14.27-7.46-31.68,4.2-41.81,2.49-2.16,7.11-1.87,10.74-2.71.48,3.91,2.84,9.52,1.11,11.45-11.56,12.87-3.23,23.23,2.62,34.54a74.87,74.87,0,0,1,7.52,21.68c1.58,9.51-3.18,17.69-8.89,25.14-3.59,4.69-7.88,4-11.79,1.07-3.72-2.75-2.84-6.08-.48-9.89C226.89,278,228.79,272.68,231.71,266.35Z"/><path d="M162.36,92.3q0,31.19,0,62.35c0,12.63-.68,13.41-13,13.41q-62,0-124.08,0c-7.47,0-10-2.13-10-9.55q0-66.66.25-133.31c0-7.72,2.68-9.94,10.51-9.94q62.06,0,124.09,0c10.42,0,12.32,2.13,12.27,12.51C162.3,49.31,162.37,70.81,162.36,92.3ZM88.9,134.49v.15c-7.07,0-14.15.06-21.22,0-4.64-.05-6.13,2.55-6.26,6.69-.18,5.85,3,7.92,8.36,7.91,13,0,25.94-.14,38.9.07,5.12.08,7.67-2.36,7.75-7,.09-4.85-2.12-8-7.73-7.81C102.11,134.66,95.5,134.49,88.9,134.49Z"/><path d="M337.58,91.7q0-31.89,0-63.78c0-10.57,1.85-12.59,12.22-12.59q62.37,0,124.74.06c7.79,0,10,2.24,10.06,10.24q.11,65.91.06,131.82c0,8.37-2.12,10.51-10.54,10.53q-63.44.12-126.86,0c-7.95,0-9.48-1.62-9.51-9.7-.08-22.2,0-44.4,0-66.61Zm74.06,42.89v-.08c-7.29,0-14.65-.58-21.83.33-2.34.29-5.74,4.41-5.82,6.88s3.35,7,5.39,7.12c14.32.62,28.67.41,43,.26,5.25-.06,6.57-3.75,6.42-8.26-.14-4.29-2.3-6.36-6.71-6.28C425.28,134.67,418.46,134.59,411.64,134.59Z"/><path d="M337.68,408.16q0-32.93,0-65.85c0-8.32.81-9.29,9.42-9.3,42.74-.09,85.47,0,128.21-.16,6.6,0,9.49,2.51,9.46,9.15q-.27,66.93-.32,133.86c0,6.13-3.13,8.37-8.84,8.35q-64.1-.21-128.2-.36c-8.72,0-9.66-1-9.68-9.82-.05-22,0-43.92,0-65.87Zm73.46-56.66v.13c-7.08,0-14.24-.59-21.21.32-2.43.32-5.68,4.07-6.23,6.73-.73,3.59.86,7.81,5.94,7.84q21.25.12,42.49-.13c5.14-.06,6.77-3.62,6.78-8.15,0-4.75-2.75-6.73-7.23-6.74C424.83,351.48,418,351.5,411.14,351.5Z"/><path d="M162.2,409.61c0,21.71-.39,43.44.2,65.14.22,7.87-3.32,9.21-9.64,9.19q-43.57-.1-87.13,0c-13.46,0-26.91.21-40.37.37-7.39.09-9.77-2-9.78-9.59-.06-44.39,0-88.78-.14-133.17,0-6.64,2.95-8.7,9-8.68,42.74.1,85.47.05,128.21.16,8.52,0,9.73,1.27,9.78,10.05.12,22.18,0,44.36,0,66.54ZM89.78,366.5v0c6.59,0,13.17-.1,19.76,0,5.47.1,6.86-3.49,6.93-7.79s-2.12-7.1-6.89-7.09q-20.46,0-40.93,0c-4.38,0-7.29,1.74-7.38,6.55-.1,5,2,8.21,7.35,8.28C75.67,366.57,82.73,366.5,89.78,366.5Z"/><path d="M177.21,408.88c0-22.43.17-44.86-.1-67.28-.08-6.46,2.28-8.77,8.65-8.75q64.45.27,128.91.06c6.16,0,8.22,2.2,8.2,8.3q-.21,67.64.09,135.28c0,5.62-2.5,7.42-7.75,7.42q-65.52,0-131,.26c-5.88,0-7.07-2.93-7-8C177.29,453.74,177.21,431.31,177.21,408.88Zm72.13,56.32v0c17.24,0,34.49.08,51.74,0,8.71-.06,11.13-2.18,11.25-10.78.27-19.84.17-39.68.17-59.53,0-8.36-3-11.49-11.35-11.71-7.55-.19-15.12-.05-22.68-.05-26.22,0-52.44,0-78.66.09-8.25,0-12.06,3-12.1,9.52-.12,20.31-.19,40.63.08,60.94.13,9.7,2.23,11.45,11.94,11.5C216.27,465.26,232.8,465.2,249.34,465.2Zm.43-93.8v0q26.22,0,52.43,0c5.42,0,9.61-2.39,9.77-8,.17-5.88-4.75-6.82-9.5-7.13-.94-.06-1.89,0-2.83,0q-49.6,0-99.19,0a24.73,24.73,0,0,0-7,.71c-6.2,1.89-7.57,7.95-2.44,11.82a15.23,15.23,0,0,0,8.45,2.49C216.23,371.52,233,371.4,249.77,371.4Z"/><path d="M411.52,183h63.1c8.81,0,10,1.15,10,9.63q0,57.41,0,114.8c0,8.27-2,10.48-9.68,10.49-42.78.07-85.55,0-128.33.15-6.47,0-8.94-2.95-8.94-9q0-58.85-.13-117.69c0-6.8,3.64-8.39,9.44-8.37,21.51.08,43,0,64.52,0Zm-.27,42.44v0c-16.76,0-33.52-.06-50.28,0-9.4.05-11.13,1.71-11.18,11.17-.1,19.82-.05,39.65,0,59.47,0,8.26,3.18,11.61,11.68,11.63q49.56.13,99.13-.14c9.71-.07,11.88-2.24,12-11.69q.36-30.08,0-60.17c-.09-9.06-1.46-10.2-10.42-10.24C445.23,225.4,428.24,225.45,411.25,225.45Zm.39-13v.06q26.22,0,52.43,0c4.31,0,8-.74,8.21-6.41s-2.47-8.38-7.94-8.51c-4.95-.13-9.91-.1-14.87-.1-29.05,0-58.09-.11-87.14-.05-5.43,0-11.85-.19-12,7.58-.15,8,6.2,7.46,11.72,7.45Z"/><path d="M249.5,134.35c-18.18,0-36.37.05-54.56-.07-2.2,0-4.4-1-6.6-1.48.76-2.3,1-5,2.35-6.86C202,110.54,213.21,95.12,225,80.16a17.59,17.59,0,0,1,11-6.06,141.2,141.2,0,0,1,27.58,0,18.81,18.81,0,0,1,11.7,6.24c11.82,15,23,30.45,34.2,45.86,1.28,1.76,1.64,4.19,2.42,6.31-2.14.66-4.27,1.9-6.4,1.91-18.66.16-37.32.09-56,.09Z"/><path d="M250.21,168.14c-21.27,0-42.54-.18-63.8.1-6.77.09-9.44-2.61-9.39-9.15.07-8.34,1-9.8,9-9.81,43-.08,86,.09,129-.1,7.32,0,7.84,4.08,7.91,9.55.07,5.77-1.29,9.46-8.25,9.39-21.5-.24-43-.09-64.5-.09Z"/><path d="M267.94,37.47c0,4-.29,8,.07,12,.57,6.45-2.48,9.18-8.55,9.22-6.6,0-13.2.15-19.79-.07-4.92-.17-7.72-2.44-7.57-8,.24-9,0-17.91-.13-26.86-.09-5.27,2.64-8.06,7.6-8.25,7.06-.26,14.15-.25,21.2.08,5,.23,7.56,3.22,7.4,8.43-.13,4.48,0,9,0,13.43Z"/><path d="M88.9,134.49c6.6,0,13.21.17,19.8-.05,5.61-.18,7.82,3,7.73,7.81-.08,4.67-2.63,7.11-7.75,7-13-.21-25.93-.11-38.9-.07-5.36,0-8.54-2.06-8.36-7.91.13-4.14,1.62-6.74,6.26-6.69,7.07.09,14.15,0,21.22,0Z"/><path d="M411.64,134.59c6.82,0,13.64.08,20.46,0,4.41-.08,6.57,2,6.71,6.28.15,4.51-1.17,8.2-6.42,8.26-14.34.15-28.69.36-43-.26-2-.09-5.47-4.7-5.39-7.12s3.48-6.59,5.82-6.88c7.18-.91,14.54-.33,21.83-.33Z"/><path d="M411.14,351.5c6.85,0,13.69,0,20.54,0,4.48,0,7.24,2,7.23,6.74,0,4.53-1.64,8.09-6.78,8.15q-21.24.27-42.49.13c-5.08,0-6.67-4.25-5.94-7.84.55-2.66,3.8-6.41,6.23-6.73,7-.91,14.13-.32,21.21-.32Z"/><path d="M89.78,366.5c-7,0-14.11.07-21.16,0-5.37-.07-7.45-3.29-7.35-8.28.09-4.81,3-6.55,7.38-6.55q20.47,0,40.93,0c4.77,0,7,2.75,6.89,7.09s-1.46,7.89-6.93,7.79c-6.59-.12-13.17,0-19.76,0Z"/><path d="M249.34,465.2c-16.54,0-33.07.06-49.61,0-9.71-.05-11.81-1.8-11.94-11.5-.27-20.31-.2-40.63-.08-60.94,0-6.54,3.85-9.49,12.1-9.52,26.22-.1,52.44-.07,78.66-.09,7.56,0,15.13-.14,22.68.05,8.39.22,11.35,3.35,11.35,11.71,0,19.85.1,39.69-.17,59.53-.12,8.6-2.54,10.72-11.25,10.78-17.25.11-34.5,0-51.74,0Zm1.44-65.82c-13,0-26,.11-39,0-6.18-.07-9.14,2.35-9,8.82.25,11.1.2,22.21.07,33.31-.08,6.42,3,8.71,9.18,8.67q37.91-.27,75.82-.07c6.11,0,9.4-2,9.34-8.51q-.17-17,0-34c.08-6.25-3.23-8.24-8.91-8.2C275.82,399.45,263.3,399.38,250.78,399.38Z"/><path d="M249.77,371.4c-16.77,0-33.54.12-50.31-.11A15.23,15.23,0,0,1,191,368.8c-5.13-3.87-3.76-9.93,2.44-11.82a24.73,24.73,0,0,1,7-.71q49.59,0,99.19,0c.94,0,1.89,0,2.83,0,4.75.31,9.67,1.25,9.5,7.13-.16,5.6-4.35,8-9.77,8q-26.22,0-52.43,0Z"/><path d="M411.25,225.45c17,0,34,0,51,0,9,0,10.33,1.18,10.42,10.24q.3,30.09,0,60.17c-.11,9.45-2.28,11.62-12,11.69q-49.56.33-99.13.14c-8.5,0-11.64-3.37-11.68-11.63-.09-19.82-.14-39.65,0-59.47,0-9.46,1.78-11.12,11.18-11.17,16.76-.08,33.52,0,50.28,0Zm.84,15.23v-.08c-13,0-26,.11-38.94-.06-5.74-.07-8.06,2.41-8,8.09.09,11.79-.06,23.58-.26,35.38-.08,5.07,2.38,7.44,7.23,7.53,5.42.09,10.85,0,16.28,0l60.16-.11c5.65,0,9.48-1.34,9.19-8.43-.44-10.84-.05-21.71-.06-32.57,0-9.2-.51-9.73-9.47-9.76C436.16,240.65,424.12,240.68,412.09,240.68Z"/><path d="M411.64,212.45H362.05c-5.52,0-11.87.57-11.72-7.45.15-7.77,6.57-7.57,12-7.58,29.05-.06,58.09,0,87.14.05,5,0,9.92,0,14.87.1,5.47.13,8.1,2.87,7.94,8.51s-3.9,6.4-8.21,6.41q-26.2.06-52.43,0Z"/></svg>