<svg id="Layer_1" data-name="Layer 1" xmlns="http://www.w3.org/2000/svg" viewBox="0 0 500 500"><defs><style>.cls-1{stroke:#000;stroke-miterlimit:10;stroke-width:21px;}</style></defs><title>rebuilded</title><path class="cls-1" d="M181,488.62l-122.6.69c-9.8,0-17.74-8.39-17.74-18.75L36.89,234.93c-6.52-4.13,1.3-22.06-4.85-28H16.91c-5.07,0-7.21-6.82-3.16-10l24.44-32.25,37.48-16.73,33-17.74L145.13,86l35.21-33.09,32.6-12.41,34-28.12a5,5,0,0,1,6.31,0L486.38,196.87c4.05,3.21,1.91,10-3.16,10H471.39a8.87,8.87,0,0,0-8.61,9.11V470.56c0,10.36-7.95,18.75-17.74,18.75L319.88,490V258.37H252.57c-37,0-67,31.19-67,70.32l-3.91,52.39V485.17Z"/></svg>