<svg id="Layer_1" data-name="Layer 1" xmlns="http://www.w3.org/2000/svg" viewBox="0 0 783 520"><defs><style>.cls-1{fill:gray;}.cls-2{fill:#3fddc8;}</style></defs><title>logo_jpg copy</title><path class="cls-1" d="M206.09,325.53v76.6H171.42v-66.4c0-15.64-9.07-24.93-23.57-24.93-16.77.23-27,13.37-27,31.05v60.28H86.21v-66.4c0-15.64-9.07-24.93-23.34-24.93-17,.23-27.2,13.37-27.2,31.05v60.28H.77V280.21h34.9v21.08c8.61-15,22.89-22.21,41.25-22.44,20.62,0,35.35,10.42,41.24,28.1,7.93-18.81,23.34-27.87,44-28.1C189.09,278.85,206.09,297,206.09,325.53Z"/><path class="cls-1" d="M272.49,245.54c0,11.33-7.71,19.49-18.81,19.49s-18.81-8.16-18.81-19.49,7.7-19.49,18.81-19.49S272.49,234.21,272.49,245.54ZM236.23,402.13V280.21h34.9V402.13Z"/><path class="cls-1" d="M409.59,304.68l-23.57,17a33.62,33.62,0,0,0-27.87-12.92c-17,0-29,13.15-29,32.64,0,19.71,12,33.08,29,33.08,12.46,0,22.21-4.75,28.33-14.27l24,16.31c-10.2,17-29.24,27-54.16,27-36.94,0-62.1-24.93-62.1-61.87,0-37.39,25.16-62.54,62.55-62.54C380.13,279.08,398.71,288.37,409.59,304.68Z"/><path class="cls-1" d="M499.79,387.86c-8.16,10.19-21.3,15.86-38.3,15.86-26.06,0-41.93-15.86-41.93-38.07,0-22.89,16.55-36.49,46.46-36.72h33.54v-2.26c0-12.92-8.61-20.4-25.38-20.4-10.88,0-23.57,3.63-36.26,10.65L427,292.9c18.13-9.07,33.77-14,55.07-14,32.64,0,51.44,16.32,51.67,43.74l.23,79.54H499.79Zm-.23-27.43V349.56H472.14c-13.37,0-19.94,4.08-19.94,13.82,0,9.29,7.25,15.41,19,15.41C486,378.79,497.52,370.86,499.56,360.43Z"/><path class="cls-1" d="M653,292.22,641,316c-13.37-7.48-27-11.79-37.16-11.79-8.16,0-14,2.72-14,9.07,0,18.35,64.36,9.06,64.13,52.12,0,24.93-22,38.07-49.63,38.07-19.72,0-39-5.89-52.8-17l11.33-23.57c12.69,9.74,29,15.18,42.38,15.18,8.83,0,15.41-2.94,15.41-9.52,0-19.49-63.23-9.06-63.23-51.89,0-25.16,21.53-38.08,48-38.08A90.93,90.93,0,0,1,653,292.22Z"/><path class="cls-1" d="M747.94,387.86c-8.16,10.19-21.31,15.86-38.3,15.86-26.06,0-41.93-15.86-41.93-38.07,0-22.89,16.55-36.49,46.46-36.72h33.54v-2.26c0-12.92-8.61-20.4-25.38-20.4-10.88,0-23.57,3.63-36.26,10.65l-10.88-24c18.13-9.07,33.77-14,55.07-14,32.63,0,51.44,16.32,51.67,43.74l.23,79.54H747.94Zm-.23-27.43V349.56H720.29c-13.37,0-19.94,4.08-19.94,13.82,0,9.29,7.25,15.41,19,15.41C734.11,378.79,745.67,370.86,747.71,360.43Z"/><path class="cls-2" d="M299.63,467.93c2.86-5.11,7.58-7.89,13.77-8v11.21c-8.51-.77-13.77,3.79-13.77,10.83v20H287.72v-41.6h11.91Z"/><path class="cls-2" d="M358.17,484.86H328.32a10.63,10.63,0,0,0,10.75,8.35,14.74,14.74,0,0,0,10.52-4.4l6.26,6.34c-4.17,4.64-10.28,7.34-17.78,7.34-13.3,0-21.73-8.5-21.73-21.11,0-12.83,8.74-21.34,21.42-21.34C352.37,460,359.18,469.71,358.17,484.86Zm-11.13-7c-.16-5.5-3.71-9.05-9.21-9.05-5.25,0-8.81,3.55-9.74,9.05Z"/><path class="cls-2" d="M390.19,497.16c-2.78,3.48-7.27,5.41-13.07,5.41-8.89,0-14.31-5.41-14.31-13,0-7.81,5.65-12.45,15.86-12.53h11.44v-.77c0-4.41-2.94-7-8.66-7A26.41,26.41,0,0,0,369.08,473l-3.71-8.19c6.18-3.1,11.52-4.8,18.79-4.8,11.13,0,17.55,5.57,17.63,14.93l.08,27.14H390.19Zm-.08-9.36v-3.71h-9.35c-4.57,0-6.81,1.39-6.81,4.72,0,3.17,2.48,5.26,6.5,5.26C385.47,494.07,389.42,491.36,390.11,487.8Z"/><path class="cls-2" d="M457.16,481.46c0,12.61-7.65,21-19.33,21-5.8,0-10.36-2.32-13.38-6.49v6H412.54V444.65h11.91v21.89A15.41,15.41,0,0,1,437.6,460C449.27,460,457.16,468.62,457.16,481.46Zm-12.06-.39c0-6.65-4.18-11.44-10.29-11.44s-10.36,4.72-10.36,11.44c0,6.89,4.25,11.53,10.36,11.53S445.1,487.88,445.1,481.07Z"/><path class="cls-2" d="M477.35,448.59a6.42,6.42,0,1,1-6.42-6.65A6.28,6.28,0,0,1,477.35,448.59ZM465,502v-41.6h11.91V502Z"/><path class="cls-2" d="M488.72,502V444.65h11.91V502Z"/><path class="cls-2" d="M524.91,448.59a6.42,6.42,0,1,1-6.42-6.65A6.28,6.28,0,0,1,524.91,448.59ZM512.54,502v-41.6h11.91V502Z"/><path class="cls-2" d="M561.64,499.71a22.12,22.12,0,0,1-10.82,2.86c-7.43,0-13.07-4.25-13.07-12.84V470.48H532v-8.2h5.8V450.84h11.83v11.44h11.29v8.28H549.58v17.16c0,3.48,1.47,4.88,4,4.8a13.79,13.79,0,0,0,5.57-1.55Z"/><path class="cls-2" d="M593,497.16c-2.78,3.48-7.26,5.41-13.06,5.41-8.9,0-14.31-5.41-14.31-13,0-7.81,5.64-12.45,15.85-12.53h11.45v-.77c0-4.41-2.94-7-8.66-7A26.41,26.41,0,0,0,571.85,473l-3.71-8.19c6.19-3.1,11.52-4.8,18.79-4.8,11.14,0,17.56,5.57,17.63,14.93l.08,27.14H593Zm-.07-9.36v-3.71h-9.36c-4.56,0-6.8,1.39-6.8,4.72,0,3.17,2.47,5.26,6.49,5.26C588.25,494.07,592.19,491.36,592.89,487.8Z"/><path class="cls-2" d="M651,493.29c-2.93,4.95-8,8.12-14.69,9l-1.85,3.64c3.17.85,5.25,3.09,5.25,6.26,0,4.8-3.79,7.81-9.12,7.81a13.24,13.24,0,0,1-7.19-2.32l2.24-5.18a6.5,6.5,0,0,0,4,1.55,3,3,0,0,0,3.33-2.94c0-1.55-1.24-2.79-3.56-2.79a20,20,0,0,0-2.79.31l2.94-6.26c-11-1.24-18.25-9.36-18.25-21,0-12.76,8.59-21.34,21.35-21.34,8,0,14.3,3.17,18,8.74l-8,5.8a11.44,11.44,0,0,0-9.51-4.41c-5.8,0-9.9,4.49-9.9,11.14s4.1,11.29,9.9,11.29c4.25,0,7.58-1.63,9.67-4.88Z"/><path class="cls-2" d="M698.14,481.23c0,12.68-9,21.26-22.27,21.26s-22.35-8.58-22.35-21.26,9-21.19,22.35-21.19S698.14,468.47,698.14,481.23Zm-18.79-35.11c1.7,0,2.55-1.16,2.55-3.4h7.35c0,7.73-2.55,11.52-7.73,11.52-4.72,0-6.65-3.79-9-3.79q-2.55,0-2.55,3.48h-7.35c0-7.81,2.55-11.68,7.73-11.68C674.79,442.25,677,446.12,679.35,446.12Zm-13.84,35.26c0,6.81,4.17,11.45,10.36,11.45s10.36-4.64,10.36-11.45-4.25-11.44-10.36-11.44S665.51,474.58,665.51,481.38Z"/><path class="cls-2" d="M744.31,484.86H714.46a10.63,10.63,0,0,0,10.75,8.35,14.74,14.74,0,0,0,10.52-4.4l6.26,6.34c-4.17,4.64-10.28,7.34-17.78,7.34-13.31,0-21.73-8.5-21.73-21.11,0-12.83,8.73-21.34,21.42-21.34C738.51,460,745.32,469.71,744.31,484.86Zm-11.13-7c-.16-5.5-3.72-9.05-9.21-9.05-5.25,0-8.81,3.55-9.74,9.05Z"/><path class="cls-2" d="M782.52,464.52l-4.1,8.12c-4.56-2.55-9.2-4-12.68-4-2.79,0-4.8.93-4.8,3.1,0,6.26,22,3.09,21.89,17.78,0,8.51-7.51,13-16.94,13-6.73,0-13.3-2-18-5.8l3.87-8a25,25,0,0,0,14.46,5.18c3,0,5.26-1,5.26-3.25,0-6.65-21.58-3.09-21.58-17.7,0-8.59,7.35-13,16.4-13A31.12,31.12,0,0,1,782.52,464.52Z"/><polygon class="cls-2" points="783.36 202.43 281.47 202.43 164.6 0 666.49 0 783.36 202.43"/><polygon class="cls-2" points="73.19 202.43 0.15 202.43 141.01 26.09 171.91 79.3 73.19 202.43"/></svg>